{"glyphs":{"0":{"ha":1105,"x_min":41,"x_max":1064,"o":"m 808 486 q 553 786 808 786 q 297 486 297 786 q 553 186 297 186 q 808 486 808 186 m 529 978 l 576 978 q 731 963 661 978 q 864 912 802 948 q 970 821 927 876 q 1039 681 1014 766 q 1064 486 1064 595 q 1039 292 1064 377 q 970 152 1014 207 q 864 60 927 96 q 731 9 802 24 q 576 -5 661 -5 l 529 -5 q 374 9 445 -5 q 241 60 304 24 q 135 152 178 96 q 66 292 92 207 q 41 486 41 377 q 66 681 41 595 q 135 821 92 766 q 241 912 178 876 q 374 963 304 948 q 529 978 445 978 z "},"1":{"ha":541,"x_min":-10,"x_max":444,"o":"m 279 972 l 379 972 q 425 954 406 972 q 444 908 444 935 l 444 64 q 425 19 444 38 q 379 0 406 0 l 253 0 q 208 18 227 0 q 189 62 189 37 l 189 718 l 111 661 q 79 654 97 651 q 52 671 62 658 l 0 736 q -9 761 -10 749 q -3 781 -9 773 q 14 798 3 788 l 179 940 q 279 972 215 972 z "},"2":{"ha":975,"x_min":41,"x_max":933,"o":"m 41 163 q 63 284 41 230 q 122 373 85 338 q 206 435 159 408 q 307 479 254 462 q 412 510 359 496 q 513 537 465 524 q 597 564 560 549 q 656 602 634 579 q 677 654 677 625 q 638 758 677 730 q 505 786 598 786 l 457 786 q 350 766 392 786 q 285 703 307 747 q 193 639 254 639 l 113 639 q 94 642 104 639 q 71 653 83 646 q 51 676 59 661 q 43 714 43 692 q 101 854 43 792 q 249 947 160 916 q 433 978 337 978 l 525 978 q 655 969 597 978 q 766 938 713 960 q 855 880 819 916 q 912 787 891 844 q 933 654 933 730 q 906 529 933 585 q 833 439 878 473 q 732 378 789 405 q 615 335 675 351 q 498 304 555 319 q 397 275 441 288 q 325 241 352 262 q 297 192 297 220 l 860 192 q 906 173 887 192 q 925 127 925 155 l 925 64 q 906 19 925 38 q 860 0 887 0 l 107 0 q 61 19 80 0 q 41 64 41 38 l 41 163 z "},"3":{"ha":1004,"x_min":35,"x_max":962,"o":"m 521 786 l 471 786 q 363 766 406 786 q 298 703 321 747 q 207 639 267 639 l 126 639 q 100 644 114 639 q 71 667 85 649 q 57 714 57 686 q 116 854 57 792 q 262 947 174 916 q 447 978 351 978 l 541 978 q 949 681 949 978 q 925 572 949 623 q 856 486 902 522 q 938 403 913 451 q 962 290 962 355 q 936 152 962 210 q 858 60 909 95 q 735 10 806 26 q 570 -5 665 -5 l 425 -5 q 240 26 328 -5 q 93 121 152 58 q 35 265 35 184 q 43 303 35 287 q 63 326 51 319 q 85 337 75 334 q 104 340 96 340 l 184 340 q 282 265 247 340 q 343 207 300 227 q 449 186 387 186 l 546 186 q 668 209 629 186 q 707 290 707 233 q 668 371 707 348 q 546 395 629 395 l 424 395 q 378 413 397 395 q 359 458 359 432 l 359 514 q 378 558 359 539 q 421 578 397 578 l 521 578 q 652 602 612 578 q 693 682 693 625 q 652 762 693 739 q 521 786 612 786 z "},"4":{"ha":1055,"x_min":14,"x_max":1028,"o":"m 14 235 l 14 315 q 56 421 14 375 l 504 930 q 610 972 542 972 l 822 972 q 868 954 849 972 q 888 908 888 935 l 888 363 l 962 363 q 1009 344 989 363 q 1028 298 1028 326 l 1028 235 q 1009 190 1028 209 q 962 171 989 171 l 888 171 l 888 64 q 868 19 888 38 q 822 0 849 0 l 696 0 q 651 18 670 0 q 632 62 632 37 l 632 171 l 79 171 q 33 190 52 171 q 14 235 14 209 m 632 363 l 632 755 l 286 363 l 632 363 z "},"5":{"ha":1006,"x_min":56,"x_max":965,"o":"m 572 -5 l 418 -5 q 160 63 264 -5 q 56 235 56 132 q 70 281 56 263 q 98 305 84 300 q 125 310 113 310 l 205 310 q 257 295 235 310 q 297 245 279 279 q 351 202 313 218 q 441 186 389 186 l 549 186 q 671 212 632 186 q 710 302 710 239 q 671 393 710 366 q 549 419 632 419 l 154 419 q 109 438 128 419 q 90 482 90 456 l 90 908 q 109 954 90 935 q 154 972 127 972 l 852 972 q 898 954 880 972 q 917 908 917 935 l 917 844 q 898 799 917 817 q 852 781 880 781 l 346 781 l 346 611 l 572 611 q 865 539 765 611 q 965 302 965 467 q 939 158 965 218 q 860 63 912 98 q 738 11 808 27 q 572 -5 667 -5 z "},"6":{"ha":1031,"x_min":56,"x_max":990,"o":"m 311 603 l 597 603 q 890 532 791 603 q 990 298 990 462 q 964 156 990 215 q 885 61 937 96 q 763 11 833 26 q 597 -5 692 -5 l 449 -5 q 283 11 353 -5 q 161 65 214 27 q 82 168 109 102 q 56 328 56 233 l 56 628 q 82 796 56 727 q 160 904 108 865 q 281 961 212 943 q 446 978 351 978 l 618 978 q 800 947 718 978 q 928 863 882 917 q 975 742 975 808 q 967 704 975 720 q 947 681 959 688 q 924 670 935 673 q 905 667 914 667 l 825 667 q 775 681 796 667 q 733 730 754 696 q 595 786 699 786 l 469 786 q 349 753 386 786 q 311 628 311 720 l 311 603 m 574 411 l 311 411 l 311 328 q 349 215 311 244 q 472 186 387 186 l 574 186 q 696 211 658 186 q 734 298 734 235 q 696 386 734 361 q 574 411 658 411 z "},"7":{"ha":884,"x_min":14,"x_max":871,"o":"m 207 57 l 599 781 l 79 781 q 33 799 52 781 q 14 844 14 818 l 14 908 q 33 953 14 934 q 79 972 52 972 l 806 972 q 852 954 833 972 q 871 908 871 935 l 871 846 q 829 722 871 798 l 473 64 q 435 18 458 37 q 385 0 412 0 l 245 0 q 207 18 218 0 q 207 57 196 37 z "},"8":{"ha":1050,"x_min":41,"x_max":1008,"o":"m 458 186 l 591 186 q 714 210 675 186 q 753 293 753 233 q 714 376 753 353 q 591 400 675 400 l 458 400 q 336 376 375 400 q 297 293 297 353 q 336 210 297 233 q 458 186 375 186 m 558 786 l 489 786 q 367 764 406 786 q 328 686 328 741 q 367 609 328 631 q 489 586 406 586 l 558 586 q 681 609 642 586 q 720 686 720 631 q 681 764 720 741 q 558 786 642 786 m 461 978 l 589 978 q 706 969 651 978 q 810 938 761 960 q 894 885 859 917 q 949 804 929 852 q 970 696 970 756 q 948 600 970 643 q 878 517 927 557 q 976 422 943 481 q 1008 292 1008 363 q 979 162 1008 219 q 896 68 949 104 q 773 13 844 32 q 621 -5 703 -5 l 429 -5 q 276 13 347 -5 q 154 68 206 32 q 71 162 101 104 q 41 292 41 219 q 74 422 41 363 q 172 517 106 481 q 102 600 123 557 q 81 696 81 642 q 101 804 81 756 q 156 885 121 852 q 240 938 191 917 q 344 969 290 960 q 461 978 399 978 z "},"9":{"ha":1031,"x_min":41,"x_max":977,"o":"m 721 370 l 435 370 q 269 386 340 370 q 146 436 199 401 q 68 531 94 471 q 41 673 41 590 q 68 816 41 757 q 146 911 94 876 q 269 962 199 946 q 435 978 340 978 l 583 978 q 719 968 659 978 q 827 934 778 958 q 909 872 877 910 q 959 777 941 834 q 977 644 977 720 l 977 345 q 950 177 977 245 q 872 68 924 108 q 750 12 819 29 q 586 -5 681 -5 l 414 -5 q 159 62 261 -5 q 57 231 57 130 q 71 277 57 259 q 100 301 85 296 q 126 306 114 306 l 207 306 q 256 291 235 306 q 298 241 277 276 q 437 186 332 186 l 562 186 q 683 219 646 186 q 721 345 721 252 l 721 370 m 458 561 l 721 561 l 721 644 q 683 757 721 728 q 559 786 646 786 l 458 786 q 336 761 374 786 q 297 673 297 736 q 336 586 297 610 q 458 561 374 561 z "}," ":{"ha":486,"x_min":0,"x_max":0,"o":""},"!":{"ha":443,"x_min":84,"x_max":359,"o":"m 89 85 l 89 127 q 113 196 89 172 q 180 220 137 220 l 264 220 q 331 196 307 220 q 355 127 355 172 l 355 85 q 332 17 355 41 q 264 -7 308 -7 l 180 -7 q 113 17 137 -7 q 89 85 89 41 m 275 289 l 168 289 q 124 307 142 289 q 104 351 106 326 l 85 908 q 103 954 84 935 q 149 972 122 972 l 294 972 q 340 954 321 972 q 358 908 359 935 l 339 351 q 319 307 338 326 q 275 289 301 289 z "},"\"":{"ha":547,"x_min":41,"x_max":506,"o":"m 361 972 l 450 972 q 490 957 475 972 q 504 917 506 941 l 484 628 q 466 588 481 604 q 427 572 450 572 l 385 572 q 345 588 361 572 q 328 628 330 604 l 307 917 q 321 957 305 941 q 361 972 336 972 m 97 972 l 186 972 q 226 957 210 972 q 240 917 242 941 l 220 628 q 202 588 218 604 q 163 572 186 572 l 121 572 q 81 588 97 572 q 64 628 66 604 l 43 917 q 57 957 41 941 q 97 972 73 972 z "},"#":{"ha":1162,"x_min":28,"x_max":1135,"o":"m 131 750 l 319 750 l 366 908 q 403 956 374 939 q 476 972 432 972 l 554 972 q 589 954 579 972 q 591 908 599 936 l 546 750 l 747 750 l 793 908 q 830 956 801 939 q 904 972 859 972 l 982 972 q 1017 954 1007 972 q 1019 908 1027 936 l 974 750 l 1093 750 q 1122 738 1111 750 q 1135 708 1133 726 l 1135 628 q 1122 598 1133 610 q 1093 586 1111 586 l 928 586 l 871 386 l 1014 386 q 1043 374 1031 386 q 1055 345 1055 362 l 1055 264 q 1044 234 1055 246 q 1015 222 1033 222 l 825 222 l 781 64 q 743 17 772 34 q 669 0 714 0 l 591 0 q 556 18 566 0 q 554 64 547 36 l 599 222 l 397 222 l 353 64 q 315 17 345 34 q 241 0 286 0 l 164 0 q 129 18 139 0 q 126 64 119 36 l 171 222 l 69 222 q 40 234 52 222 q 28 264 28 246 l 28 345 q 40 374 29 363 q 69 386 52 386 l 216 386 l 273 586 l 131 586 q 101 598 113 586 q 89 628 89 610 l 89 708 q 101 738 89 726 q 131 750 113 750 m 496 590 l 437 382 l 647 382 l 705 590 l 496 590 z "},"$":{"ha":1082,"x_min":41,"x_max":1040,"o":"m 433 1040 q 445 1070 433 1058 q 475 1082 457 1082 l 525 1082 l 525 978 l 562 978 l 562 1082 l 612 1082 q 642 1070 630 1082 q 654 1040 654 1058 l 654 978 q 825 946 743 977 q 961 857 907 915 q 1015 728 1015 798 q 1007 690 1015 706 q 987 667 1000 674 q 965 656 975 659 q 946 653 955 653 l 865 653 q 774 717 805 653 q 654 785 745 779 l 654 572 q 735 553 699 563 q 813 529 772 543 q 886 498 854 514 q 948 459 918 482 q 997 411 978 437 q 1028 351 1017 385 q 1040 278 1040 317 q 1021 167 1040 215 q 959 81 1002 119 q 840 21 916 43 q 654 -4 763 -1 l 654 -68 q 642 -98 654 -85 q 612 -110 630 -110 l 562 -110 l 562 -5 l 525 -5 l 525 -110 l 475 -110 q 445 -98 457 -110 q 433 -68 433 -85 l 433 -5 l 404 -5 q 233 25 315 -5 q 96 115 151 56 q 41 244 41 173 q 50 282 41 266 q 70 305 58 298 q 92 316 82 313 q 111 319 102 319 l 192 319 q 283 256 252 319 q 428 186 317 186 l 433 186 l 433 401 q 320 430 369 416 q 218 469 271 444 q 130 523 164 494 q 73 597 95 553 q 50 694 50 641 q 69 804 50 757 q 130 890 87 852 q 249 950 173 928 q 433 977 326 972 l 433 1040 m 785 264 q 751 315 785 294 q 654 353 718 336 l 654 186 l 665 186 q 785 264 785 186 m 306 708 q 338 657 306 677 q 433 619 371 636 l 433 786 l 425 786 q 306 708 306 786 m 562 374 l 525 380 l 525 186 l 562 186 l 562 374 m 525 786 l 525 599 l 562 591 l 562 786 l 525 786 z "},"%":{"ha":1162,"x_min":41,"x_max":1121,"o":"m 913 972 l 1021 972 q 1054 951 1046 972 q 1044 908 1062 930 l 368 64 q 250 0 317 0 l 142 0 q 108 21 116 0 q 118 64 100 42 l 794 908 q 913 972 846 972 m 962 212 q 942 285 962 259 q 885 311 921 311 q 828 285 849 311 q 807 212 807 258 q 828 140 807 166 q 885 114 849 114 q 942 140 921 114 q 962 212 962 166 m 1054 377 q 1087 347 1054 377 q 1121 212 1121 317 q 1054 48 1121 108 q 885 -12 986 -12 q 716 48 784 -12 q 648 212 648 108 q 716 377 648 317 q 885 437 784 437 q 1054 377 986 437 m 355 761 q 335 834 355 808 q 278 860 314 860 q 221 833 242 860 q 200 761 200 807 q 221 689 200 715 q 278 663 242 663 q 335 689 314 663 q 355 761 355 715 m 447 926 q 480 896 447 926 q 514 761 514 865 q 447 596 514 656 q 278 536 379 536 q 109 596 177 536 q 41 761 41 656 q 109 926 41 865 q 278 986 177 986 q 447 926 379 986 z "},"&":{"ha":1058,"x_min":41,"x_max":1050,"o":"m 713 71 q 580 8 648 29 q 419 -14 511 -14 q 139 67 237 -14 q 41 288 41 147 q 83 447 41 379 q 204 551 125 515 q 143 710 143 619 q 166 816 143 766 q 233 904 189 865 q 347 964 277 942 q 503 986 416 986 q 773 926 675 986 q 872 750 872 866 q 860 720 872 732 q 831 708 848 708 l 741 708 q 663 758 695 708 q 505 822 622 822 q 412 795 446 822 q 379 722 379 769 q 409 633 379 675 q 496 542 439 591 l 730 338 l 798 433 q 824 450 807 448 q 852 444 840 453 l 926 395 q 945 367 942 383 q 937 336 947 351 l 856 220 l 1029 64 q 1041 22 1050 45 q 1006 0 1032 0 l 851 0 q 795 11 822 0 q 754 34 769 22 q 713 71 739 45 m 436 150 q 579 191 519 150 l 338 408 q 269 288 269 374 q 436 150 269 150 z "},"'":{"ha":283,"x_min":41,"x_max":242,"o":"m 97 972 l 186 972 q 226 957 210 972 q 240 917 242 941 l 220 628 q 202 588 218 604 q 163 572 186 572 l 121 572 q 81 588 97 572 q 64 628 66 604 l 43 917 q 57 957 41 941 q 97 972 73 972 z "},"(":{"ha":451,"x_min":41,"x_max":437,"o":"m 288 664 q 271 608 288 664 q 253 424 253 551 q 288 183 253 296 q 415 -41 323 71 q 427 -56 422 -50 q 434 -69 431 -62 q 437 -83 437 -76 q 432 -97 437 -90 l 393 -161 q 368 -181 385 -177 q 338 -176 351 -186 q 116 81 191 -79 q 41 424 41 242 q 72 651 41 542 q 170 859 102 760 q 338 1023 238 958 q 368 1028 351 1033 q 393 1008 385 1024 l 432 945 q 437 931 437 938 q 434 917 437 924 q 427 904 431 909 q 415 889 422 898 q 288 664 323 777 z "},")":{"ha":451,"x_min":12,"x_max":410,"o":"m 163 183 q 181 240 163 183 q 199 424 199 296 q 163 664 199 551 q 36 889 127 777 q 21 908 26 901 q 15 926 17 915 q 20 945 12 937 l 58 1008 q 84 1028 67 1024 q 114 1023 100 1033 q 335 766 261 926 q 410 424 410 606 q 335 81 410 242 q 114 -176 261 -79 q 84 -181 100 -186 q 58 -161 67 -177 l 20 -97 q 15 -78 12 -89 q 21 -60 17 -67 q 36 -41 26 -53 q 163 183 127 71 z "},"*":{"ha":591,"x_min":40,"x_max":552,"o":"m 264 972 l 328 972 q 358 962 346 972 q 370 935 370 952 l 368 828 l 458 884 q 491 888 475 893 q 515 868 507 884 l 543 817 q 548 785 552 802 q 528 760 543 768 l 431 708 l 528 657 q 548 632 543 649 q 543 600 552 614 l 515 549 q 491 528 507 533 q 458 533 475 524 l 368 589 l 370 482 q 358 454 370 465 q 328 444 346 444 l 264 444 q 234 454 245 444 q 222 482 222 465 l 224 589 l 134 533 q 101 528 117 524 q 77 549 85 533 l 49 600 q 44 632 40 614 q 64 657 48 649 l 161 708 l 64 760 q 44 785 48 768 q 49 817 40 802 l 77 868 q 101 888 85 884 q 134 884 117 893 l 224 828 l 222 935 q 234 962 222 952 q 264 972 245 972 z "},"+":{"ha":650,"x_min":28,"x_max":623,"o":"m 239 167 l 239 345 l 69 345 q 40 356 52 345 q 28 386 28 368 l 28 467 q 40 496 28 484 q 69 509 52 509 l 239 509 l 239 677 q 251 707 239 695 q 281 720 263 720 l 361 720 q 391 707 378 720 q 403 677 403 695 l 403 509 l 581 509 q 610 496 598 509 q 623 467 623 484 l 623 386 q 610 356 623 368 q 581 345 598 345 l 403 345 l 403 167 q 391 137 403 149 q 361 125 378 125 l 281 125 q 251 137 263 125 q 239 167 239 149 z "},",":{"ha":373,"x_min":24,"x_max":328,"o":"m 309 114 l 228 -90 q 186 -145 214 -123 q 121 -168 157 -168 l 94 -168 q 38 -146 52 -168 q 32 -77 24 -124 l 72 142 q 110 196 78 173 q 175 220 141 220 l 231 220 q 307 191 285 220 q 309 114 328 162 z "},"-":{"ha":650,"x_min":28,"x_max":623,"o":"m 69 509 l 581 509 q 610 496 598 509 q 623 467 623 484 l 623 386 q 610 356 623 368 q 581 345 598 345 l 69 345 q 40 356 52 345 q 28 386 28 368 l 28 467 q 40 496 28 484 q 69 509 52 509 z "},".":{"ha":378,"x_min":56,"x_max":322,"o":"m 56 85 l 56 127 q 80 196 56 172 q 147 220 104 220 l 231 220 q 298 196 274 220 q 322 127 322 172 l 322 85 q 298 17 322 41 q 231 -7 274 -7 l 147 -7 q 79 17 103 -7 q 56 85 56 41 z "},"/":{"ha":715,"x_min":-5,"x_max":720,"o":"m 568 972 l 682 972 q 713 953 707 972 q 705 908 720 933 l 265 64 q 219 17 250 34 q 147 0 189 0 l 33 0 q 2 19 8 0 q 9 64 -5 39 l 450 908 q 496 955 465 938 q 568 972 528 972 z "},":":{"ha":378,"x_min":56,"x_max":322,"o":"m 56 85 l 56 127 q 80 196 56 172 q 147 220 104 220 l 231 220 q 298 196 274 220 q 322 127 322 172 l 322 85 q 298 17 322 41 q 231 -7 274 -7 l 147 -7 q 79 17 103 -7 q 56 85 56 41 m 56 623 l 56 665 q 79 733 56 709 q 147 757 103 757 l 231 757 q 298 733 274 757 q 322 665 322 709 l 322 623 q 298 554 322 578 q 231 530 274 530 l 147 530 q 80 554 104 530 q 56 623 56 578 z "},";":{"ha":380,"x_min":24,"x_max":328,"o":"m 309 114 l 228 -90 q 186 -145 214 -123 q 121 -168 157 -168 l 94 -168 q 38 -146 52 -168 q 32 -77 24 -124 l 72 142 q 110 196 78 173 q 175 220 141 220 l 231 220 q 307 191 285 220 q 309 114 328 162 m 58 623 l 58 665 q 82 733 58 709 q 150 757 106 757 l 233 757 q 301 733 277 757 q 325 665 325 709 l 325 623 q 301 554 325 578 q 233 530 277 530 l 150 530 q 82 554 106 530 q 58 623 58 578 z "},"<":{"ha":583,"x_min":41,"x_max":528,"o":"m 41 354 l 41 387 q 82 461 41 431 l 468 734 q 509 741 491 751 q 528 707 528 731 l 528 590 q 512 540 528 562 q 468 498 496 519 l 288 371 l 468 243 q 512 201 496 222 q 528 151 528 180 l 528 35 q 509 0 528 10 q 468 7 491 -9 l 82 281 q 41 354 41 311 z "},"=":{"ha":677,"x_min":41,"x_max":636,"o":"m 83 648 l 595 648 q 624 636 612 648 q 636 607 636 625 l 636 526 q 624 497 636 509 q 595 485 612 485 l 83 485 q 54 497 66 485 q 41 526 41 509 l 41 607 q 54 636 41 625 q 83 648 66 648 m 83 363 l 595 363 q 624 351 612 363 q 636 321 636 338 l 636 240 q 624 211 636 222 q 595 199 612 199 l 83 199 q 54 211 66 199 q 41 240 41 222 l 41 321 q 54 351 41 338 q 83 363 66 363 z "},">":{"ha":583,"x_min":56,"x_max":542,"o":"m 542 387 l 542 354 q 501 281 542 311 l 115 7 q 74 0 92 -9 q 56 35 56 10 l 56 151 q 71 201 56 180 q 115 243 87 222 l 296 371 l 115 498 q 71 540 87 519 q 56 590 56 562 l 56 707 q 74 741 56 731 q 115 734 92 751 l 501 461 q 542 387 542 431 z "},"?":{"ha":909,"x_min":28,"x_max":868,"o":"m 298 85 l 298 127 q 322 196 298 172 q 390 220 347 220 l 473 220 q 541 195 517 220 q 566 127 566 171 l 566 85 q 542 17 566 41 q 473 -7 517 -7 l 390 -7 q 322 17 346 -7 q 298 85 298 41 m 507 289 l 354 289 q 325 301 336 289 q 313 330 313 313 q 329 420 313 380 q 372 486 346 460 q 431 532 399 512 q 494 568 463 553 q 553 599 526 584 q 596 633 579 614 q 612 675 612 652 q 575 760 612 734 q 458 786 538 786 l 424 786 q 269 703 311 786 q 178 639 238 639 l 97 639 q 71 644 85 639 q 42 667 56 649 q 28 714 28 686 q 62 823 28 772 q 150 907 96 874 q 270 959 204 941 q 400 978 335 978 l 478 978 q 601 969 545 978 q 707 938 656 960 q 792 882 758 916 q 848 795 827 848 q 868 675 868 743 q 850 584 868 625 q 805 519 833 544 q 742 473 777 494 q 674 438 708 453 q 612 408 640 422 q 566 374 584 393 q 549 330 549 354 q 537 301 549 313 q 507 289 525 289 z "},"@":{"ha":1152,"x_min":41,"x_max":1111,"o":"m 545 282 q 681 323 618 282 l 681 396 l 541 396 q 488 380 507 396 q 468 340 468 364 q 488 298 468 314 q 545 282 508 282 m 590 53 q 737 63 681 53 q 807 74 793 74 l 827 74 q 856 61 844 74 q 868 29 868 47 l 868 -35 q 857 -62 868 -50 q 827 -77 845 -73 q 590 -97 723 -97 q 190 46 338 -97 q 41 444 41 190 q 190 842 41 699 q 590 986 338 986 q 801 960 708 986 q 964 879 894 934 q 1073 733 1035 824 q 1111 519 1111 642 q 1092 391 1111 450 q 1036 285 1074 332 q 936 212 999 238 q 790 186 873 186 l 725 186 q 704 194 712 186 q 696 214 696 202 l 696 229 q 528 178 624 178 q 370 220 431 178 q 309 340 309 262 q 369 458 309 417 q 528 500 430 500 l 681 500 q 658 576 681 555 q 586 597 635 597 q 496 567 524 597 q 443 542 479 542 l 374 542 q 354 550 361 542 q 346 570 346 557 q 411 671 346 640 q 599 703 476 703 q 723 683 670 703 q 810 616 777 663 q 843 500 843 570 l 843 318 q 911 366 886 318 q 937 519 937 414 q 846 759 937 682 q 590 836 754 836 q 315 728 414 836 q 215 444 215 621 q 315 160 215 268 q 590 53 415 53 z "},"A":{"ha":1158,"x_min":9,"x_max":1061,"o":"m 17 62 l 187 708 q 237 818 203 770 q 313 894 271 865 q 411 941 355 923 q 520 966 466 959 q 637 972 574 972 l 1003 972 q 1044 954 1027 972 q 1061 909 1061 935 l 1061 62 q 1042 18 1061 37 q 997 0 1023 0 l 869 0 q 824 18 842 0 q 806 64 806 37 l 806 235 l 323 235 l 278 64 q 248 18 271 37 q 197 0 224 0 l 64 0 q 23 18 37 0 q 17 62 9 37 m 433 644 l 374 427 l 806 427 l 806 781 l 612 781 q 498 744 547 781 q 433 644 450 707 z "},"B":{"ha":1145,"x_min":97,"x_max":1104,"o":"m 97 64 l 97 908 q 116 954 97 935 q 161 972 135 972 l 713 972 q 816 963 766 972 q 912 933 866 954 q 991 880 958 911 q 1045 802 1025 849 q 1065 696 1065 754 q 1044 600 1065 642 q 974 517 1023 557 q 1072 422 1040 481 q 1104 292 1104 363 q 1075 165 1104 221 q 996 73 1046 109 q 881 19 945 37 q 745 0 817 0 l 161 0 q 116 19 134 0 q 97 64 97 38 m 715 789 l 353 789 l 353 595 l 715 595 q 784 620 759 595 q 810 692 810 646 q 784 763 810 738 q 715 789 759 789 m 741 416 l 353 416 l 353 183 l 741 183 q 821 215 793 183 q 848 300 848 246 q 821 385 848 353 q 741 416 793 416 z "},"C":{"ha":1135,"x_min":41,"x_max":1100,"o":"m 167 115 q 104 175 167 115 q 41 486 41 235 q 167 858 41 737 q 545 978 293 978 l 696 978 q 837 959 768 978 q 962 903 905 939 q 1052 808 1018 867 q 1086 679 1086 750 q 1078 641 1086 657 q 1058 618 1070 625 q 1036 607 1046 610 q 1017 604 1025 604 l 936 604 q 839 679 873 604 q 672 786 789 786 l 551 786 q 448 776 490 786 q 376 746 406 766 q 329 689 346 726 q 304 605 312 653 q 297 486 297 556 q 304 368 297 416 q 329 283 312 319 q 376 226 346 247 q 448 196 406 205 q 551 186 490 186 l 686 186 q 852 293 802 186 q 950 368 888 368 l 1031 368 q 1057 363 1043 368 q 1086 340 1072 358 q 1100 293 1100 321 q 1078 186 1100 235 q 1017 102 1055 137 q 929 43 979 68 q 823 6 879 18 q 710 -5 768 -5 l 545 -5 q 167 115 293 -5 z "},"D":{"ha":1144,"x_min":97,"x_max":1103,"o":"m 161 972 l 541 972 q 969 855 835 972 q 1103 486 1103 737 q 969 118 1103 235 q 541 0 835 0 l 161 0 q 116 18 135 0 q 97 62 97 37 l 97 907 q 116 953 97 934 q 161 972 134 972 m 533 781 l 353 781 l 353 192 l 533 192 q 687 208 627 192 q 784 262 748 224 q 833 352 819 299 q 847 486 847 405 q 833 621 847 568 q 784 711 819 673 q 687 764 748 748 q 533 781 627 781 z "},"E":{"ha":1034,"x_min":97,"x_max":1007,"o":"m 943 972 q 988 954 970 972 q 1007 908 1007 935 l 1007 844 q 988 799 1007 818 q 943 781 970 781 l 353 781 l 353 583 l 861 583 q 906 564 887 583 q 925 519 925 545 l 925 456 q 906 411 925 430 q 861 392 887 392 l 353 392 l 353 192 l 942 192 q 986 173 968 192 q 1004 129 1004 155 l 1004 64 q 986 19 1004 38 q 940 0 967 0 l 161 0 q 116 19 134 0 q 97 65 97 38 l 97 909 q 116 954 97 935 q 161 972 136 972 l 943 972 z "},"F":{"ha":1021,"x_min":97,"x_max":1007,"o":"m 289 0 l 161 0 q 116 19 134 0 q 97 65 97 38 l 97 909 q 116 954 97 935 q 161 972 136 972 l 943 972 q 988 954 970 972 q 1007 908 1007 935 l 1007 844 q 988 799 1007 818 q 943 781 970 781 l 353 781 l 353 542 l 833 542 q 878 523 859 542 q 897 478 897 504 l 897 414 q 878 369 897 388 q 833 350 859 350 l 353 350 l 353 65 q 334 19 353 38 q 289 0 316 0 z "},"G":{"ha":1149,"x_min":41,"x_max":1108,"o":"m 857 347 l 704 347 q 659 366 678 347 q 640 411 640 385 l 640 464 q 659 509 640 490 q 704 528 678 528 l 1044 528 q 1089 509 1070 528 q 1108 464 1108 490 l 1108 389 q 995 97 1108 199 q 660 -5 881 -5 l 507 -5 q 161 116 281 -5 q 41 486 41 238 q 167 858 41 737 q 545 978 293 978 l 696 978 q 880 947 791 978 q 1028 858 969 916 q 1086 728 1086 799 q 1078 690 1086 706 q 1058 667 1070 674 q 1036 656 1046 659 q 1017 653 1025 653 l 936 653 q 844 717 878 653 q 672 786 808 786 l 551 786 q 448 776 490 786 q 376 746 406 766 q 329 689 346 726 q 304 605 312 653 q 297 486 297 556 q 345 251 297 317 q 514 186 392 186 l 653 186 q 809 228 762 186 q 857 347 856 269 z "},"H":{"ha":1172,"x_min":97,"x_max":1075,"o":"m 819 62 l 819 411 l 353 411 l 353 62 q 334 18 353 37 q 289 0 315 0 l 163 0 q 116 19 136 0 q 97 64 97 38 l 97 908 q 116 954 97 935 q 163 972 136 972 l 289 972 q 334 954 315 972 q 353 908 353 935 l 353 603 l 819 603 l 819 908 q 838 954 819 935 q 884 972 857 972 l 1010 972 q 1056 954 1037 972 q 1075 908 1075 935 l 1075 64 q 1056 19 1075 38 q 1010 0 1037 0 l 884 0 q 838 18 857 0 q 819 62 819 37 z "},"I":{"ha":450,"x_min":97,"x_max":353,"o":"m 97 62 l 97 908 q 116 954 97 935 q 161 972 135 972 l 288 972 q 334 954 315 972 q 353 908 353 935 l 353 64 q 334 19 353 38 q 288 0 315 0 l 161 0 q 116 18 135 0 q 97 62 97 37 z "},"J":{"ha":766,"x_min":0,"x_max":684,"o":"m 256 0 l 64 0 q 19 19 37 0 q 0 64 0 37 l 0 140 q 18 186 0 168 q 64 204 37 204 l 86 204 q 142 198 104 204 q 200 192 180 192 l 249 192 q 386 231 344 192 q 428 361 428 269 l 428 908 q 447 954 428 935 q 492 972 465 972 l 618 972 q 664 954 645 972 q 684 908 684 935 l 684 363 q 568 95 684 189 q 256 0 452 0 z "},"K":{"ha":1104,"x_min":97,"x_max":1109,"o":"m 289 0 l 161 0 q 116 19 136 0 q 97 65 97 38 l 97 908 q 116 955 97 935 q 161 974 136 974 l 289 974 q 334 955 315 974 q 353 908 353 935 l 353 583 l 498 583 q 603 616 558 583 q 689 721 648 648 l 794 908 q 839 957 812 941 q 892 974 865 974 l 1048 974 q 1080 955 1074 974 q 1069 908 1086 936 l 922 642 q 851 545 890 584 q 747 492 811 507 q 839 436 792 482 q 922 334 886 389 l 1092 64 q 1102 18 1109 37 q 1068 0 1095 0 l 913 0 q 856 19 886 0 q 808 64 825 37 l 689 253 q 603 357 646 322 q 498 392 559 392 l 353 392 l 353 62 q 334 18 353 37 q 289 0 315 0 z "},"L":{"ha":1021,"x_min":97,"x_max":1007,"o":"m 161 972 l 289 972 q 334 953 315 972 q 353 907 353 934 l 353 192 l 943 192 q 988 173 970 192 q 1007 127 1007 155 l 1007 64 q 988 19 1007 37 q 943 0 970 0 l 161 0 q 116 18 135 0 q 97 62 97 37 l 97 907 q 116 953 97 934 q 161 972 134 972 z "},"M":{"ha":1436,"x_min":97,"x_max":1339,"o":"m 766 0 l 669 0 q 620 18 644 0 q 586 61 595 36 l 347 728 l 347 65 q 329 19 347 38 q 283 0 311 0 l 161 0 q 116 19 134 0 q 97 65 97 38 l 97 907 q 116 953 97 934 q 160 972 134 972 l 436 972 q 486 954 463 972 q 518 908 510 935 l 718 329 l 918 908 q 950 954 926 935 q 1000 972 974 972 l 1276 972 q 1320 953 1302 972 q 1339 907 1339 934 l 1339 65 q 1320 19 1339 38 q 1275 0 1302 0 l 1153 0 q 1107 19 1126 0 q 1089 65 1089 38 l 1089 728 l 850 61 q 816 18 840 36 q 766 0 792 0 z "},"N":{"ha":1204,"x_min":97,"x_max":1107,"o":"m 281 0 l 161 0 q 116 19 136 0 q 97 64 97 38 l 97 908 q 116 953 97 934 q 160 972 134 972 l 359 972 q 410 953 383 972 q 453 908 436 934 l 863 278 l 863 909 q 882 954 863 935 q 926 972 901 972 l 1043 972 q 1088 954 1070 972 q 1107 908 1107 935 l 1107 64 q 1088 19 1107 37 q 1043 0 1069 0 l 818 0 q 765 18 792 0 q 720 64 737 37 l 345 646 l 345 64 q 326 19 345 38 q 281 0 307 0 z "},"O":{"ha":1175,"x_min":41,"x_max":1133,"o":"m 808 728 q 774 769 808 728 q 587 810 739 810 q 366 728 435 810 q 297 486 297 647 q 366 244 297 326 q 587 163 435 163 q 808 244 739 163 q 878 486 878 326 q 808 728 878 647 m 180 101 q 111 162 180 101 q 41 486 41 222 q 180 871 41 750 q 587 993 319 993 q 995 871 856 993 q 1133 486 1133 750 q 995 101 1133 222 q 587 -21 856 -21 q 180 101 319 -21 z "},"P":{"ha":1115,"x_min":97,"x_max":1088,"o":"m 600 781 l 353 781 l 353 408 l 600 408 q 676 412 644 408 q 739 428 709 416 q 789 460 770 440 q 821 515 809 481 q 832 595 832 549 q 821 674 832 641 q 789 728 809 708 q 739 761 770 749 q 676 777 708 772 q 600 781 644 781 m 160 972 l 677 972 q 982 880 876 972 q 1088 595 1088 787 q 982 310 1088 403 q 677 216 876 216 l 353 216 l 353 64 q 334 19 353 37 q 289 0 315 0 l 161 0 q 116 19 136 0 q 97 64 97 38 l 97 908 q 116 954 97 935 q 160 972 134 972 z "},"Q":{"ha":1172,"x_min":41,"x_max":1173,"o":"m 180 114 q 111 174 180 114 q 41 493 41 234 q 180 872 41 752 q 587 993 319 993 q 820 966 721 993 q 990 883 919 940 q 1097 732 1061 826 q 1133 507 1133 638 q 1122 405 1133 454 q 1099 324 1112 355 q 1064 258 1087 292 q 1031 211 1042 224 q 1000 176 1021 199 l 1108 176 q 1154 158 1135 176 q 1173 113 1173 140 l 1173 57 q 1154 12 1173 30 q 1108 -7 1135 -7 l 587 -7 q 180 114 319 -7 m 587 810 q 366 729 435 810 q 297 493 297 649 q 366 257 297 337 q 587 176 435 176 q 878 507 878 176 q 809 735 878 661 q 587 810 741 810 z "},"R":{"ha":1122,"x_min":97,"x_max":1113,"o":"m 518 355 l 353 355 l 353 64 q 334 19 353 37 q 289 0 315 0 l 161 0 q 116 19 136 0 q 97 64 97 38 l 97 908 q 116 954 97 935 q 160 972 134 972 l 720 972 q 974 889 875 972 q 1074 664 1074 805 q 1054 566 1074 610 q 998 494 1034 523 q 918 446 962 465 q 818 416 873 427 q 894 365 859 401 q 972 260 928 329 l 1096 64 q 1106 18 1113 37 q 1072 0 1099 0 l 909 0 q 853 19 883 0 q 806 64 823 37 l 690 244 q 618 325 659 294 q 518 355 577 355 m 642 781 l 353 781 l 353 547 l 642 547 q 723 557 685 547 q 789 595 760 567 q 818 664 818 623 q 789 733 818 705 q 723 771 760 761 q 642 781 685 781 z "},"S":{"ha":1082,"x_min":41,"x_max":1040,"o":"m 71 600 q 61 621 71 600 q 50 694 50 642 q 63 788 50 747 q 106 866 75 830 q 185 926 136 902 q 308 964 233 951 q 481 978 382 978 l 653 978 q 824 947 742 978 q 961 858 907 916 q 1015 728 1015 799 q 1007 690 1015 706 q 987 667 1000 674 q 965 656 975 659 q 946 653 955 653 l 865 653 q 774 717 805 653 q 629 786 741 786 l 425 786 q 306 708 306 786 q 331 663 306 682 q 398 630 356 644 q 496 606 441 617 q 612 582 551 594 q 734 554 673 569 q 850 515 795 538 q 948 460 905 491 q 1015 383 990 429 q 1040 278 1040 336 q 1028 184 1040 226 q 985 106 1015 142 q 906 46 954 71 q 783 8 857 22 q 610 -5 708 -5 l 404 -5 q 233 25 315 -5 q 96 115 151 56 q 41 244 41 173 q 50 282 41 266 q 70 305 58 298 q 92 316 82 313 q 111 319 102 319 l 192 319 q 283 256 252 319 q 428 186 317 186 l 665 186 q 785 264 785 186 q 764 306 785 287 q 708 336 743 324 q 626 360 673 348 q 526 382 579 372 q 417 405 473 391 q 309 434 361 419 q 209 473 256 449 q 127 527 162 498 q 71 600 92 557 z "},"T":{"ha":1017,"x_min":14,"x_max":1003,"o":"m 78 972 l 939 972 q 984 954 966 972 q 1003 908 1003 935 l 1003 844 q 984 799 1003 817 q 939 781 966 781 l 636 781 l 636 62 q 617 18 636 37 q 572 0 598 0 l 444 0 q 399 18 418 0 q 380 62 380 37 l 380 781 l 78 781 q 32 799 51 781 q 14 844 14 817 l 14 908 q 32 954 14 935 q 78 972 51 972 z "},"U":{"ha":1144,"x_min":83,"x_max":1061,"o":"m 518 186 l 627 186 q 762 234 719 186 q 806 383 806 283 l 806 908 q 825 954 806 935 q 869 972 844 972 l 996 972 q 1042 954 1023 972 q 1061 908 1061 935 l 1061 385 q 952 96 1061 198 q 633 -5 844 -5 l 511 -5 q 192 96 301 -5 q 83 385 83 198 l 83 908 q 102 954 83 935 q 149 972 121 972 l 275 972 q 320 954 301 972 q 339 908 339 935 l 339 383 q 382 234 339 283 q 518 186 426 186 z "},"V":{"ha":1108,"x_min":8,"x_max":1100,"o":"m 603 0 l 505 0 q 408 69 441 0 l 18 916 q 23 955 8 937 q 62 972 39 972 l 211 972 q 258 954 237 972 q 292 908 279 936 l 554 323 l 817 908 q 850 954 829 936 q 897 972 871 972 l 1046 972 q 1085 955 1069 972 q 1090 916 1100 937 l 700 69 q 603 0 667 0 z "},"W":{"ha":1555,"x_min":9,"x_max":1547,"o":"m 715 972 l 840 972 q 891 955 871 972 q 921 908 912 937 l 1086 371 l 1265 908 q 1297 954 1275 936 q 1346 972 1320 972 l 1495 972 q 1533 955 1518 972 q 1539 916 1547 938 l 1236 69 q 1139 0 1211 0 l 1040 0 q 979 18 1004 0 q 943 69 954 37 l 778 591 l 612 69 q 577 18 602 37 q 515 0 551 0 l 416 0 q 319 69 345 0 l 17 916 q 23 955 9 938 q 61 972 37 972 l 210 972 q 258 954 236 972 q 290 908 281 936 l 469 371 l 635 908 q 664 955 644 937 q 715 972 685 972 z "},"X":{"ha":1042,"x_min":8,"x_max":1034,"o":"m 335 908 l 521 672 l 707 908 q 825 972 758 972 l 971 972 q 1006 953 998 972 q 994 908 1014 933 l 672 500 l 1014 64 q 1025 19 1034 39 q 990 0 1017 0 l 846 0 q 728 64 779 0 l 521 328 l 314 64 q 196 0 263 0 l 52 0 q 16 19 24 0 q 28 64 8 39 l 370 500 l 47 908 q 36 953 28 933 q 71 972 43 972 l 216 972 q 335 908 283 972 z "},"Y":{"ha":1030,"x_min":9,"x_max":1022,"o":"m 387 62 l 387 347 l 25 908 q 16 952 9 932 q 49 972 23 972 l 178 972 q 296 908 253 972 l 515 570 l 734 908 q 852 972 777 972 l 982 972 q 1015 952 1008 972 q 1006 908 1022 932 l 643 347 l 643 62 q 624 18 643 37 q 579 0 605 0 l 452 0 q 406 18 425 0 q 387 62 387 37 z "},"Z":{"ha":996,"x_min":35,"x_max":961,"o":"m 98 972 l 890 972 q 936 954 918 972 q 954 908 954 935 l 954 832 q 943 779 954 804 q 921 742 931 753 q 890 711 910 730 l 357 192 l 897 192 q 943 173 924 192 q 961 127 961 155 l 961 64 q 943 18 961 37 q 897 0 924 0 l 110 0 q 64 18 83 0 q 46 64 46 37 l 46 139 q 57 195 46 169 q 79 235 68 222 q 110 268 90 248 l 627 781 l 98 781 q 53 799 71 781 q 35 844 35 817 l 35 908 q 53 954 35 935 q 98 972 71 972 z "},"[":{"ha":540,"x_min":97,"x_max":526,"o":"m 318 -24 l 485 -24 q 514 -36 503 -24 q 526 -65 526 -47 l 526 -139 q 514 -169 526 -157 q 485 -180 503 -180 l 139 -180 q 109 -169 121 -180 q 97 -139 97 -157 l 97 986 q 109 1016 97 1004 q 139 1028 121 1028 l 485 1028 q 514 1016 503 1028 q 526 986 526 1004 l 526 913 q 514 883 526 895 q 485 871 503 871 l 318 871 l 318 -24 z "},"\\":{"ha":715,"x_min":-5,"x_max":720,"o":"m 33 972 l 147 972 q 219 955 188 972 q 265 908 250 938 l 705 64 q 713 19 720 39 q 682 0 707 0 l 568 0 q 496 17 527 0 q 450 64 465 34 l 9 908 q 2 953 -5 933 q 33 972 8 972 z "},"]":{"ha":540,"x_min":14,"x_max":443,"o":"m 56 -24 l 222 -24 l 222 871 l 56 871 q 26 883 38 871 q 14 913 14 895 l 14 986 q 26 1016 14 1004 q 56 1028 38 1028 l 401 1028 q 431 1016 419 1028 q 443 986 443 1004 l 443 -139 q 431 -169 443 -157 q 401 -180 419 -180 l 56 -180 q 26 -169 38 -180 q 14 -139 14 -157 l 14 -65 q 26 -36 14 -47 q 56 -24 38 -24 z "},"^":{"ha":739,"x_min":-5,"x_max":744,"o":"m 319 972 l 419 972 q 511 913 471 972 l 729 583 q 735 542 744 560 q 701 524 726 524 l 595 524 q 504 581 543 524 l 370 783 l 235 581 q 144 524 196 524 l 37 524 q 4 542 13 524 q 9 583 -5 560 l 228 913 q 319 972 268 972 z "},"_":{"ha":555,"x_min":0,"x_max":555,"o":"m 41 0 l 514 0 q 544 -12 532 0 q 555 -41 555 -24 l 555 -122 q 544 -152 555 -140 q 514 -164 532 -164 l 41 -164 q 12 -152 24 -164 q 0 -122 0 -140 l 0 -41 q 12 -12 0 -24 q 41 0 24 0 z "},"`":{"ha":382,"x_min":16,"x_max":362,"o":"m 151 661 l 40 867 q 40 943 16 913 q 118 972 63 972 l 174 972 q 237 949 207 972 q 277 895 267 926 l 347 675 q 346 607 362 631 q 285 583 329 583 l 258 583 q 151 661 194 583 z "},"a":{"ha":905,"x_min":41,"x_max":822,"o":"m 386 140 q 587 201 490 140 l 587 307 l 379 307 q 304 284 332 307 q 277 225 277 261 q 305 164 277 187 q 386 140 334 140 m 449 603 q 370 591 406 603 q 317 557 334 578 q 239 521 288 521 l 138 521 q 108 533 120 521 q 96 562 96 545 q 121 653 96 615 q 197 714 147 692 q 312 747 246 736 q 465 757 378 757 q 606 740 543 757 q 718 689 669 724 q 795 596 768 654 q 822 461 822 538 l 822 41 q 810 12 822 24 q 781 0 798 0 l 650 0 q 620 12 632 0 q 608 41 608 24 l 608 62 q 363 -14 503 -14 q 199 13 271 -14 q 84 94 127 39 q 41 225 41 149 q 131 400 41 338 q 363 461 220 461 l 587 461 q 554 571 587 540 q 449 603 522 603 z "},"b":{"ha":919,"x_min":83,"x_max":878,"o":"m 318 566 l 318 165 q 461 150 379 150 q 596 202 556 150 q 636 371 636 254 q 597 541 636 488 q 465 593 557 593 q 318 566 402 593 m 83 62 l 83 930 q 95 960 83 948 q 125 972 107 972 l 277 972 q 306 960 294 972 q 318 930 318 948 l 318 722 q 377 740 353 734 q 438 751 401 746 q 514 757 475 757 q 779 657 681 757 q 878 371 878 558 q 769 83 878 180 q 447 -14 661 -14 q 243 9 349 -14 q 83 62 138 31 z "},"c":{"ha":862,"x_min":41,"x_max":835,"o":"m 461 593 q 323 541 363 593 q 283 371 283 489 q 325 202 283 254 q 468 150 366 150 q 557 167 519 150 q 614 214 595 184 q 692 264 646 264 l 793 264 q 823 252 810 264 q 835 222 835 240 q 734 46 835 106 q 452 -14 634 -14 q 147 84 252 -14 q 41 371 41 182 q 146 659 41 561 q 444 757 250 757 q 727 697 627 757 q 828 521 828 637 q 816 491 828 503 q 786 479 804 479 l 685 479 q 607 529 639 479 q 551 575 589 558 q 461 593 513 593 z "},"d":{"ha":919,"x_min":41,"x_max":836,"o":"m 440 150 q 602 211 504 150 l 602 566 q 454 593 517 593 q 323 541 362 593 q 283 371 283 488 q 320 203 283 256 q 440 150 357 150 m 385 -14 q 136 86 231 -14 q 41 371 41 186 q 140 657 41 558 q 406 757 239 757 q 482 751 445 757 q 543 740 519 746 q 602 722 566 734 l 602 930 q 613 960 602 948 q 643 972 625 972 l 794 972 q 824 960 812 972 q 836 930 836 948 l 836 41 q 824 12 836 24 q 794 0 812 0 l 664 0 q 634 12 646 0 q 623 41 623 24 l 623 62 q 385 -14 517 -14 z "},"e":{"ha":875,"x_min":41,"x_max":833,"o":"m 791 300 l 281 300 q 329 178 288 216 q 454 140 370 140 q 587 186 550 140 q 665 222 617 222 l 766 222 q 796 210 784 222 q 808 180 808 198 q 782 90 808 127 q 706 29 756 52 q 590 -3 656 7 q 437 -14 524 -14 q 145 85 250 -14 q 41 371 41 184 q 146 657 41 557 q 437 757 251 757 q 729 660 625 757 q 833 380 833 562 l 833 342 q 821 312 833 324 q 791 300 809 300 m 437 603 q 323 562 363 603 q 279 443 283 522 l 595 443 q 437 603 589 603 z "},"f":{"ha":667,"x_min":83,"x_max":694,"o":"m 83 41 l 83 639 q 120 841 83 766 q 241 951 157 916 q 472 986 326 986 q 653 972 584 986 q 683 958 671 969 q 694 930 694 946 l 694 856 q 683 826 694 838 q 653 814 671 814 l 628 814 q 583 820 613 814 q 534 825 553 825 q 424 818 464 825 q 358 788 383 810 q 326 732 334 766 q 318 639 318 698 l 318 628 l 564 628 q 593 616 581 628 q 606 586 606 604 l 606 505 q 593 476 606 488 q 564 464 581 464 l 318 464 l 318 41 q 306 12 318 24 q 277 0 294 0 l 125 0 q 95 12 107 0 q 83 41 83 24 z "},"g":{"ha":905,"x_min":41,"x_max":822,"o":"m 41 404 q 149 665 41 572 q 458 757 257 757 q 662 734 557 757 q 822 681 768 712 l 822 53 q 794 -82 822 -24 q 716 -175 767 -140 q 600 -226 666 -210 q 452 -243 534 -243 q 165 -198 263 -243 q 68 -49 68 -153 q 80 -19 68 -31 q 110 -7 92 -7 l 211 -7 q 289 -43 260 -7 q 435 -89 326 -89 q 552 -58 517 -89 q 587 53 587 -26 l 587 85 q 385 57 476 57 q 136 151 231 57 q 41 404 41 244 m 283 404 q 440 221 283 221 q 587 241 506 221 l 587 578 q 444 593 529 593 q 322 545 360 593 q 283 404 283 498 z "},"h":{"ha":947,"x_min":83,"x_max":864,"o":"m 629 41 l 629 431 q 595 553 629 513 q 500 593 560 593 q 318 496 415 593 l 318 41 q 306 12 318 24 q 277 0 294 0 l 125 0 q 95 12 107 0 q 83 41 83 24 l 83 930 q 95 960 83 948 q 125 972 107 972 l 277 972 q 306 960 294 972 q 318 930 318 948 l 318 659 q 429 731 374 706 q 555 757 484 757 q 680 738 625 757 q 777 681 735 719 q 841 579 819 642 q 864 431 864 515 l 864 41 q 852 12 864 24 q 822 0 840 0 l 671 0 q 641 12 653 0 q 629 41 629 24 z "},"i":{"ha":407,"x_min":83,"x_max":323,"o":"m 279 0 l 127 0 q 98 12 110 0 q 86 41 86 24 l 86 685 q 98 714 86 703 q 127 726 110 726 l 279 726 q 309 714 297 726 q 321 685 321 703 l 321 41 q 309 12 321 24 q 279 0 297 0 m 83 885 l 83 908 q 104 965 83 945 q 161 986 125 986 l 245 986 q 303 965 282 986 q 323 908 323 945 l 323 885 q 303 828 323 848 q 245 807 282 807 l 161 807 q 104 828 125 807 q 83 885 83 848 z "},"j":{"ha":418,"x_min":-125,"x_max":335,"o":"m 332 685 l 332 77 q 69 -243 332 -243 q -83 -229 -24 -243 q -113 -214 -102 -225 q -125 -187 -125 -203 l -125 -114 q -113 -84 -125 -96 q -83 -72 -101 -72 l -62 -72 q -28 -77 -50 -72 q 7 -82 -7 -82 q 70 -44 43 -82 q 97 77 97 -7 l 97 685 q 109 714 97 703 q 139 726 121 726 l 290 726 q 320 714 308 726 q 332 685 332 703 m 94 885 l 94 908 q 115 965 94 945 q 172 986 136 986 l 257 986 q 314 965 294 986 q 335 908 335 945 l 335 885 q 314 828 335 848 q 257 807 294 807 l 172 807 q 115 828 136 807 q 94 885 94 848 z "},"k":{"ha":847,"x_min":83,"x_max":838,"o":"m 318 930 l 318 449 q 479 541 436 449 l 545 679 q 585 726 558 708 q 642 743 612 743 l 770 743 q 801 725 795 743 q 793 679 806 706 l 705 494 q 644 415 683 448 q 561 372 605 381 q 705 250 645 347 l 821 64 q 831 18 838 37 q 798 0 825 0 l 669 0 q 566 64 606 0 l 479 204 q 410 271 452 248 q 318 294 367 294 l 318 41 q 306 12 318 24 q 277 0 294 0 l 125 0 q 95 12 107 0 q 83 41 83 24 l 83 930 q 95 960 83 948 q 125 972 107 972 l 277 972 q 306 960 294 972 q 318 930 318 948 z "},"l":{"ha":401,"x_min":83,"x_max":318,"o":"m 277 0 l 125 0 q 95 12 107 0 q 83 41 83 24 l 83 930 q 95 960 83 948 q 125 972 107 972 l 277 972 q 306 960 294 972 q 318 930 318 948 l 318 41 q 306 12 318 24 q 277 0 294 0 z "},"m":{"ha":1396,"x_min":83,"x_max":1312,"o":"m 581 41 l 581 431 q 463 593 581 593 q 387 568 421 593 q 318 496 353 544 l 318 41 q 306 12 318 24 q 277 0 294 0 l 125 0 q 95 12 107 0 q 83 41 83 24 l 83 701 q 95 731 83 719 q 125 743 107 743 l 277 743 q 306 731 294 743 q 318 701 318 719 l 318 659 q 414 731 367 706 q 528 757 461 757 q 766 627 686 757 q 1025 757 892 757 q 1235 677 1158 757 q 1312 431 1312 597 l 1312 41 q 1300 12 1312 24 q 1271 0 1289 0 l 1120 0 q 1090 12 1102 0 q 1078 41 1078 24 l 1078 431 q 960 593 1078 593 q 886 566 925 593 q 811 489 848 538 q 815 431 815 460 l 815 41 q 803 12 815 24 q 774 0 791 0 l 623 0 q 593 12 605 0 q 581 41 581 24 z "},"n":{"ha":947,"x_min":83,"x_max":864,"o":"m 629 41 l 629 431 q 595 553 629 513 q 500 593 560 593 q 318 496 415 593 l 318 41 q 306 12 318 24 q 277 0 294 0 l 125 0 q 95 12 107 0 q 83 41 83 24 l 83 701 q 95 731 83 719 q 125 743 107 743 l 277 743 q 306 731 294 743 q 318 701 318 719 l 318 659 q 429 731 374 706 q 555 757 484 757 q 680 738 625 757 q 777 681 735 719 q 841 579 819 642 q 864 431 864 515 l 864 41 q 852 12 864 24 q 822 0 840 0 l 671 0 q 641 12 653 0 q 629 41 629 24 z "},"o":{"ha":903,"x_min":41,"x_max":861,"o":"m 319 196 q 341 168 319 196 q 452 140 362 140 q 584 196 541 140 q 627 372 627 251 q 584 548 627 494 q 452 603 541 603 q 319 548 362 603 q 277 372 277 494 q 319 196 277 251 m 147 660 q 200 708 147 660 q 452 757 253 757 q 756 660 650 757 q 861 372 861 562 q 756 84 861 182 q 452 -14 650 -14 q 147 84 253 -14 q 41 372 41 182 q 147 660 41 562 z "},"p":{"ha":919,"x_min":83,"x_max":878,"o":"m 479 593 q 318 532 416 593 l 318 178 q 465 150 405 150 q 597 202 557 150 q 636 372 636 255 q 599 540 636 488 q 479 593 562 593 m 534 757 q 783 657 688 757 q 878 372 878 557 q 779 86 878 185 q 514 -14 681 -14 q 438 -8 475 -14 q 377 3 401 -3 q 318 21 353 9 l 318 -187 q 306 -217 318 -205 q 277 -229 294 -229 l 125 -229 q 95 -217 107 -229 q 83 -187 83 -205 l 83 701 q 95 731 83 719 q 125 743 107 743 l 256 743 q 285 731 273 743 q 297 701 297 719 l 297 681 q 534 757 403 757 z "},"q":{"ha":919,"x_min":41,"x_max":836,"o":"m 458 593 q 323 541 363 593 q 283 372 283 489 q 323 202 283 255 q 454 150 362 150 q 602 178 515 150 l 602 578 q 458 593 543 593 m 472 757 q 676 734 570 757 q 836 681 782 712 l 836 -187 q 824 -217 836 -205 q 794 -229 812 -229 l 643 -229 q 613 -217 625 -229 q 602 -187 602 -205 l 602 21 q 543 3 566 9 q 482 -8 519 -3 q 406 -14 445 -14 q 140 86 239 -14 q 41 372 41 185 q 150 660 41 563 q 472 757 258 757 z "},"r":{"ha":675,"x_min":83,"x_max":661,"o":"m 661 715 l 661 612 q 649 583 661 595 q 619 571 637 571 l 597 571 q 547 573 582 571 q 493 575 511 575 q 318 475 402 575 l 318 41 q 306 12 318 24 q 277 0 294 0 l 125 0 q 95 12 107 0 q 83 41 83 24 l 83 701 q 95 731 83 719 q 125 743 107 743 l 277 743 q 306 731 294 743 q 318 701 318 719 l 318 659 q 398 710 363 692 q 490 743 433 729 q 619 757 547 757 q 649 745 637 757 q 661 715 661 733 z "},"s":{"ha":830,"x_min":41,"x_max":789,"o":"m 789 205 q 761 105 789 148 q 683 37 734 62 q 565 -1 632 12 q 415 -14 498 -14 q 260 -3 327 -14 q 144 29 194 7 q 68 90 94 52 q 43 180 43 127 q 55 210 43 198 q 85 222 67 222 l 186 222 q 264 186 234 222 q 399 140 301 140 q 554 205 554 140 q 532 241 554 226 q 474 267 510 257 q 392 287 438 276 q 298 309 346 298 q 203 340 250 320 q 121 384 157 359 q 63 448 85 408 q 41 538 41 488 q 68 638 41 595 q 145 706 96 681 q 256 744 194 732 q 395 757 319 757 q 671 711 575 757 q 766 562 766 666 q 754 533 766 545 q 725 521 743 521 l 624 521 q 546 557 575 521 q 492 591 528 578 q 411 603 456 603 q 277 538 277 603 q 299 502 277 517 q 357 477 321 486 q 439 457 393 468 q 533 435 485 446 q 627 405 581 424 q 709 361 673 385 q 767 296 745 336 q 789 205 789 256 z "},"t":{"ha":625,"x_min":83,"x_max":597,"o":"m 555 0 q 375 -14 486 -14 q 156 61 229 -14 q 83 292 83 136 l 83 930 q 95 960 83 948 q 125 972 107 972 l 277 972 q 306 960 294 972 q 318 930 318 948 l 318 704 l 507 704 q 537 692 525 704 q 549 663 549 680 l 549 582 q 537 552 549 564 q 507 541 525 541 l 318 541 l 318 292 q 351 185 318 222 q 437 147 383 147 q 486 151 456 147 q 530 155 515 155 l 555 155 q 585 143 573 155 q 597 114 597 132 l 597 41 q 586 15 597 26 q 555 0 574 3 z "},"u":{"ha":947,"x_min":83,"x_max":864,"o":"m 318 701 l 318 313 q 352 190 318 229 q 447 150 387 150 q 629 248 532 150 l 629 701 q 641 731 629 719 q 671 743 653 743 l 822 743 q 852 731 840 743 q 864 701 864 719 l 864 41 q 852 12 864 24 q 822 0 840 0 l 671 0 q 641 12 653 0 q 629 41 629 24 l 629 85 q 519 12 574 37 q 392 -14 464 -14 q 268 5 323 -14 q 171 63 212 24 q 106 164 129 101 q 83 313 83 228 l 83 701 q 95 731 83 719 q 125 743 107 743 l 277 743 q 306 731 294 743 q 318 701 318 719 z "},"v":{"ha":911,"x_min":9,"x_max":902,"o":"m 505 0 l 406 0 q 352 16 378 0 q 314 60 327 33 l 21 684 q 17 726 9 709 q 49 743 25 743 l 179 743 q 233 727 208 743 q 271 684 259 710 l 456 261 l 640 684 q 677 727 652 710 q 732 743 703 743 l 863 743 q 894 726 886 743 q 890 684 902 709 l 597 60 q 559 17 585 33 q 505 0 534 0 z "},"w":{"ha":1247,"x_min":11,"x_max":1236,"o":"m 564 743 l 684 743 q 732 727 712 743 q 761 684 753 711 l 871 318 l 982 684 q 1017 727 991 711 q 1074 743 1042 743 l 1200 743 q 1230 726 1223 743 q 1227 684 1236 709 l 1022 60 q 988 16 1013 33 q 936 0 964 0 l 840 0 q 788 16 813 0 q 754 60 763 33 l 624 464 l 493 60 q 459 16 484 33 q 407 0 434 0 l 311 0 q 259 16 283 0 q 225 60 234 33 l 20 684 q 18 726 11 709 q 47 743 24 743 l 174 743 q 231 727 205 743 q 265 684 256 711 l 376 318 l 486 684 q 515 727 494 711 q 564 743 535 743 z "},"x":{"ha":866,"x_min":16,"x_max":850,"o":"m 321 684 l 433 513 l 546 684 q 591 728 566 713 q 652 743 615 743 l 799 743 q 828 723 823 743 q 819 684 834 703 l 599 372 l 835 60 q 844 20 850 41 q 814 0 838 0 l 669 0 q 609 15 633 0 q 564 60 585 30 l 433 236 l 302 60 q 257 15 280 30 q 197 0 233 0 l 53 0 q 22 20 28 0 q 32 60 16 41 l 268 372 l 47 684 q 38 723 33 703 q 68 743 44 743 l 215 743 q 276 728 252 743 q 321 684 300 713 z "},"y":{"ha":878,"x_min":19,"x_max":867,"o":"m 317 -82 q 450 58 412 -82 q 350 73 394 58 q 264 122 305 87 q 188 220 222 157 q 125 375 153 283 l 24 703 q 29 731 19 718 q 56 743 39 743 l 197 743 q 234 730 216 743 q 258 697 252 717 l 347 410 q 415 263 380 304 q 496 222 449 222 l 631 697 q 652 730 635 717 q 688 743 669 743 l 831 743 q 857 731 848 743 q 863 703 867 718 l 685 69 q 568 -171 637 -98 q 379 -243 498 -243 q 203 -229 277 -243 q 173 -214 184 -226 q 161 -187 161 -203 l 161 -113 q 173 -83 161 -95 q 203 -71 185 -71 l 228 -71 q 272 -76 243 -71 q 317 -82 300 -82 z "},"z":{"ha":776,"x_min":35,"x_max":742,"o":"m 688 538 l 318 164 l 700 164 q 730 152 718 164 q 742 122 742 140 l 742 41 q 730 12 742 24 q 700 0 718 0 l 77 0 q 47 12 59 0 q 35 41 35 24 l 35 107 q 46 159 35 139 q 83 205 58 180 l 440 579 l 77 579 q 47 591 59 579 q 35 621 35 603 l 35 701 q 47 731 35 719 q 77 743 59 743 l 694 743 q 724 731 712 743 q 736 701 736 719 l 736 636 q 724 584 736 604 q 688 538 713 563 z "},"{":{"ha":585,"x_min":28,"x_max":571,"o":"m 240 424 q 351 362 309 412 q 393 236 393 313 l 393 104 q 425 11 393 46 q 501 -24 457 -24 l 529 -24 q 559 -36 547 -24 q 571 -65 571 -47 l 571 -139 q 559 -169 571 -157 q 529 -180 547 -180 l 463 -180 q 350 -165 400 -180 q 259 -120 299 -151 q 197 -36 219 -89 q 175 89 175 18 l 175 257 q 152 317 175 293 q 97 342 129 342 l 69 342 q 40 354 52 342 q 28 383 28 366 l 28 464 q 40 493 28 481 q 69 505 52 505 l 97 505 q 152 530 129 505 q 175 590 175 554 l 175 758 q 197 883 175 829 q 259 967 219 936 q 350 1013 299 998 q 463 1028 400 1028 l 529 1028 q 559 1016 547 1028 q 571 986 571 1004 l 571 913 q 559 883 571 895 q 529 871 547 871 l 501 871 q 425 836 457 871 q 393 743 393 802 l 393 611 q 351 485 393 534 q 240 424 309 436 z "},"|":{"ha":429,"x_min":97,"x_max":332,"o":"m 290 -229 l 139 -229 q 109 -217 121 -229 q 97 -187 97 -205 l 97 930 q 109 960 97 948 q 139 972 121 972 l 290 972 q 320 960 308 972 q 332 930 332 948 l 332 -187 q 320 -217 332 -205 q 290 -229 308 -229 z "},"}":{"ha":585,"x_min":14,"x_max":557,"o":"m 345 424 q 234 485 276 436 q 192 611 192 533 l 192 743 q 160 836 192 801 q 83 871 127 871 l 56 871 q 26 883 38 871 q 14 913 14 895 l 14 986 q 26 1016 14 1004 q 56 1028 38 1028 l 122 1028 q 235 1013 184 1028 q 326 967 286 998 q 388 883 366 936 q 410 758 410 829 l 410 590 q 433 530 410 554 q 488 505 456 505 l 515 505 q 545 493 533 505 q 557 464 557 481 l 557 383 q 545 354 557 366 q 515 342 533 342 l 488 342 q 433 317 456 342 q 410 257 410 293 l 410 89 q 388 -36 410 18 q 326 -120 366 -89 q 235 -165 286 -151 q 122 -180 184 -180 l 56 -180 q 26 -169 38 -180 q 14 -139 14 -157 l 14 -65 q 26 -36 14 -47 q 56 -24 38 -24 l 83 -24 q 160 11 127 -24 q 192 104 192 46 l 192 236 q 234 363 192 314 q 345 424 276 412 z "},"~":{"ha":825,"x_min":41,"x_max":783,"o":"m 783 517 q 729 374 783 425 q 581 323 675 323 q 486 334 529 323 q 418 358 443 345 q 359 382 394 372 q 289 393 325 393 q 235 385 256 393 q 207 368 214 377 q 183 350 199 358 q 143 342 167 342 l 77 342 q 52 352 62 342 q 41 376 41 361 q 96 519 41 468 q 244 570 150 570 q 339 559 296 570 q 407 535 382 548 q 466 511 431 522 q 536 500 500 500 q 590 508 569 500 q 619 526 611 516 q 643 543 627 535 q 682 551 659 551 l 749 551 q 773 542 764 551 q 783 517 783 532 z "}," ":{"ha":1158,"x_min":9,"x_max":1061,"o":"m 806 351 l 240 351 l 318 639 q 385 761 337 712 q 494 829 433 809 q 631 850 555 850 l 1061 850 l 1061 62 q 1042 18 1061 37 q 997 0 1023 0 l 869 0 q 824 18 842 0 q 806 64 806 37 l 806 228 l 338 228 l 292 64 q 261 18 285 37 q 211 0 238 0 l 149 0 l 233 313 l 806 313 l 806 351 m 17 62 l 187 708 q 237 818 203 770 q 313 894 271 865 q 411 941 355 923 q 520 966 466 959 q 637 972 574 972 l 1003 972 q 1044 954 1027 972 q 1061 909 1061 935 l 1061 889 l 618 889 q 479 869 541 889 q 378 817 417 850 q 317 749 340 785 q 283 675 294 713 l 106 0 l 64 0 q 23 18 37 0 q 17 62 9 37 m 443 631 l 387 433 l 806 433 l 806 766 l 627 766 q 510 729 560 766 q 443 631 460 692 z "},"¤":{"ha":1141,"x_min":14,"x_max":1133,"o":"m 661 781 l 372 781 l 372 547 l 661 547 q 742 557 705 547 q 809 595 780 567 q 838 664 838 623 q 809 733 838 705 q 742 771 780 761 q 661 781 705 781 m 117 521 l 117 908 q 135 954 117 935 q 179 972 153 972 l 739 972 q 994 895 894 972 q 1093 692 1093 818 q 1073 598 1093 640 q 1018 529 1053 557 q 937 483 982 500 q 838 456 892 465 l 14 456 l 14 479 q 26 509 14 497 q 56 521 38 521 l 117 521 m 14 424 l 838 424 q 915 365 878 409 q 1000 245 952 321 l 1116 64 q 1126 18 1133 37 q 1092 0 1119 0 l 929 0 q 872 19 903 0 q 825 64 842 37 l 710 244 q 637 325 678 294 q 538 355 597 355 l 372 355 l 372 64 q 354 19 372 37 q 309 0 335 0 l 180 0 q 136 19 155 0 q 117 64 117 38 l 117 358 l 56 358 q 26 370 38 358 q 14 400 14 382 l 14 424 z "},"¦":{"ha":401,"x_min":83,"x_max":318,"o":"m 277 -229 l 125 -229 q 95 -217 107 -229 q 83 -187 83 -205 l 83 285 q 95 314 83 302 q 125 326 107 326 l 277 326 q 306 314 294 326 q 318 285 318 302 l 318 -187 q 306 -217 318 -205 q 277 -229 294 -229 m 277 416 l 125 416 q 95 429 107 416 q 83 458 83 441 l 83 930 q 95 960 83 948 q 125 972 107 972 l 277 972 q 306 960 294 972 q 318 930 318 948 l 318 458 q 306 429 318 441 q 277 416 294 416 z "},"§":{"ha":872,"x_min":56,"x_max":817,"o":"m 69 732 q 436 986 69 986 q 587 976 522 986 q 702 943 652 966 q 776 883 751 921 q 802 791 802 844 q 789 762 802 774 q 760 750 777 750 l 659 750 q 581 786 610 750 q 528 820 563 808 q 453 832 494 832 q 338 811 372 832 q 304 739 304 789 q 327 690 304 711 q 385 656 349 669 q 467 629 420 643 q 561 602 513 614 q 654 567 608 589 q 736 517 701 545 q 794 446 772 490 q 817 345 817 401 q 734 164 817 230 q 803 11 803 100 q 436 -243 803 -243 q 286 -233 351 -243 q 171 -200 220 -222 q 96 -140 121 -178 q 71 -49 71 -102 q 83 -19 71 -31 q 113 -7 95 -7 l 214 -7 q 292 -43 262 -7 q 344 -77 309 -64 q 419 -89 378 -89 q 535 -67 501 -89 q 568 4 568 -46 q 551 48 568 29 q 504 81 533 68 q 435 106 474 94 q 354 130 397 117 q 270 156 312 142 q 189 191 227 170 q 120 239 150 212 q 73 308 91 267 q 56 399 56 349 q 138 578 56 513 q 69 732 69 642 m 290 399 q 297 373 290 385 q 319 350 304 361 q 350 331 334 340 q 391 314 366 323 q 437 298 417 304 q 490 281 458 291 q 543 264 522 271 q 582 345 582 286 q 575 370 582 358 q 553 393 568 382 q 523 412 538 404 q 480 430 507 420 q 434 445 454 439 q 381 462 414 452 q 328 479 349 473 q 290 399 290 456 z "},"©":{"ha":1180,"x_min":41,"x_max":1139,"o":"m 990 46 q 916 -25 990 46 q 590 -97 842 -97 q 190 46 338 -97 q 41 444 41 190 q 190 842 41 699 q 590 986 338 986 q 990 842 842 986 q 1139 444 1139 699 q 990 46 1139 190 m 310 156 q 360 102 310 156 q 590 49 410 49 q 870 156 770 49 q 970 444 970 263 q 870 733 970 626 q 590 840 771 840 q 310 733 409 840 q 211 444 211 626 q 310 156 211 263 m 599 587 q 510 553 536 587 q 484 443 484 519 q 510 333 484 367 q 603 300 537 300 q 697 342 669 300 q 747 375 716 375 l 814 375 q 833 367 825 375 q 840 347 840 359 q 775 233 840 271 q 591 195 710 195 q 394 258 463 195 q 326 443 326 321 q 394 631 326 567 q 587 694 462 694 q 771 655 705 694 q 836 541 836 616 q 828 522 836 529 q 808 514 820 514 l 743 514 q 693 546 713 514 q 599 587 667 587 z "},"«":{"ha":691,"x_min":28,"x_max":667,"o":"m 28 364 l 28 397 q 54 460 28 424 l 193 637 q 249 668 216 668 l 332 668 q 357 652 353 668 q 346 612 361 636 l 204 380 l 346 149 q 357 109 361 125 q 332 93 353 93 l 249 93 q 193 123 216 93 l 54 301 q 28 364 28 337 m 334 364 l 334 397 q 359 460 334 425 l 498 637 q 554 668 521 668 l 637 668 q 663 652 659 668 q 652 612 667 636 l 510 380 l 652 149 q 663 109 667 125 q 637 93 659 93 l 554 93 q 498 123 521 93 l 359 301 q 334 364 334 336 z "},"¬":{"ha":1158,"x_min":9,"x_max":1061,"o":"m 806 351 l 240 351 l 318 639 q 385 761 337 712 q 494 829 433 809 q 631 850 555 850 l 1061 850 l 1061 62 q 1042 18 1061 37 q 997 0 1023 0 l 869 0 q 824 18 842 0 q 806 64 806 37 l 806 228 l 338 228 l 292 64 q 261 18 285 37 q 211 0 238 0 l 149 0 l 233 313 l 806 313 l 806 351 m 17 62 l 187 708 q 237 818 203 770 q 313 894 271 865 q 411 941 355 923 q 520 966 466 959 q 637 972 574 972 l 1003 972 q 1044 954 1027 972 q 1061 909 1061 935 l 1061 889 l 618 889 q 479 869 541 889 q 378 817 417 850 q 317 749 340 785 q 283 675 294 713 l 106 0 l 64 0 q 23 18 37 0 q 17 62 9 37 m 443 631 l 387 433 l 806 433 l 806 766 l 627 766 q 510 729 560 766 q 443 631 460 692 z "},"­":{"ha":650,"x_min":28,"x_max":623,"o":"m 69 509 l 581 509 q 610 496 598 509 q 623 467 623 484 l 623 386 q 610 356 623 368 q 581 345 598 345 l 69 345 q 40 356 52 345 q 28 386 28 368 l 28 467 q 40 496 28 484 q 69 509 52 509 z "},"®":{"ha":1180,"x_min":41,"x_max":1139,"o":"m 990 46 q 916 -25 990 46 q 590 -97 842 -97 q 190 46 338 -97 q 41 444 41 190 q 190 842 41 699 q 590 986 338 986 q 990 842 842 986 q 1139 444 1139 699 q 990 46 1139 190 m 310 156 q 360 102 310 156 q 590 49 410 49 q 870 156 770 49 q 970 444 970 263 q 870 733 970 626 q 590 840 771 840 q 310 733 409 840 q 211 444 211 626 q 310 156 211 263 m 570 378 l 482 378 l 482 228 q 473 204 482 214 q 449 195 463 195 l 382 195 q 358 204 368 195 q 349 228 349 214 l 349 664 q 358 687 349 677 q 382 696 368 696 l 675 696 q 808 653 756 696 q 860 538 860 610 q 726 410 860 434 q 766 384 748 402 q 807 329 783 365 l 872 228 q 877 204 880 213 q 860 195 874 195 l 775 195 q 745 204 761 195 q 720 228 728 214 l 660 321 q 570 378 623 378 m 633 597 l 482 597 l 482 476 l 633 476 q 698 491 670 476 q 726 538 726 506 q 699 583 726 569 q 633 597 671 597 z "},"°":{"ha":555,"x_min":41,"x_max":514,"o":"m 345 678 q 357 693 345 678 q 370 761 370 707 q 345 844 370 814 q 278 873 320 873 q 211 844 236 873 q 186 761 186 814 q 211 678 186 708 q 278 648 236 648 q 345 678 320 648 m 447 926 q 480 896 447 926 q 514 761 514 865 q 447 596 514 656 q 278 536 379 536 q 109 596 177 536 q 41 761 41 656 q 109 926 41 865 q 278 986 177 986 q 447 926 379 986 z "},"±":{"ha":650,"x_min":28,"x_max":623,"o":"m 69 281 l 239 281 l 239 404 l 69 404 q 40 416 52 404 q 28 446 28 428 l 28 526 q 40 556 28 544 q 69 568 52 568 l 239 568 l 239 737 q 251 767 239 755 q 281 779 263 779 l 361 779 q 391 767 378 779 q 403 737 403 755 l 403 568 l 581 568 q 610 556 598 568 q 623 526 623 544 l 623 446 q 610 416 623 428 q 581 404 598 404 l 403 404 l 403 281 l 581 281 q 610 269 598 281 q 623 239 623 256 l 623 158 q 610 129 623 140 q 581 117 598 117 l 69 117 q 40 129 52 117 q 28 158 28 140 l 28 239 q 40 269 28 256 q 69 281 52 281 z "},"µ":{"ha":947,"x_min":83,"x_max":864,"o":"m 277 -229 l 125 -229 q 95 -217 107 -229 q 83 -187 83 -205 l 83 701 q 95 731 83 719 q 125 743 107 743 l 277 743 q 306 731 294 743 q 318 701 318 719 l 318 334 q 358 198 318 247 q 454 150 399 150 q 550 184 503 150 q 629 275 596 219 l 629 701 q 641 731 629 719 q 671 743 653 743 l 822 743 q 852 731 840 743 q 864 701 864 719 l 864 41 q 852 12 864 24 q 822 0 840 0 l 671 0 q 641 12 653 0 q 629 41 629 24 l 629 85 q 546 8 583 31 q 458 -14 509 -14 q 318 35 368 -14 l 318 -187 q 306 -217 318 -205 q 277 -229 294 -229 z "},"¶":{"ha":975,"x_min":41,"x_max":947,"o":"m 905 818 l 844 818 l 844 -165 q 825 -210 844 -191 q 779 -229 806 -229 l 624 -229 l 624 818 l 554 818 l 554 -229 l 397 -229 q 352 -211 371 -229 q 334 -165 334 -192 l 334 469 q 187 498 252 469 q 81 585 121 526 q 41 722 41 643 q 81 859 41 802 q 187 945 121 917 q 334 972 252 972 l 905 972 q 935 960 923 972 q 947 930 947 948 l 947 860 q 935 830 947 842 q 905 818 923 818 z "},"·":{"ha":544,"x_min":139,"x_max":406,"o":"m 139 404 l 139 447 q 163 515 139 491 q 231 539 187 539 l 314 539 q 381 515 357 539 q 406 447 406 491 l 406 404 q 382 337 406 361 q 314 313 358 313 l 231 313 q 163 337 187 313 q 139 404 139 361 z "},"»":{"ha":691,"x_min":25,"x_max":664,"o":"m 664 397 l 664 364 q 637 301 664 337 l 498 123 q 443 93 476 93 l 359 93 q 335 109 338 93 q 346 149 331 125 l 488 380 l 346 612 q 335 652 331 636 q 359 668 338 668 l 443 668 q 498 637 476 668 l 637 460 q 664 397 664 424 m 358 397 l 358 364 q 332 301 358 337 l 193 123 q 138 93 171 93 l 54 93 q 29 109 33 93 q 40 149 25 125 l 182 380 l 40 612 q 29 652 25 636 q 54 668 33 668 l 138 668 q 193 637 171 668 l 332 460 q 358 397 358 424 z "}," ":{"ha":541,"x_min":0,"x_max":0,"o":""}," ":{"ha":1082,"x_min":0,"x_max":0,"o":""}," ":{"ha":541,"x_min":0,"x_max":0,"o":""}," ":{"ha":1082,"x_min":0,"x_max":0,"o":""}," ":{"ha":360,"x_min":0,"x_max":0,"o":""}," ":{"ha":270,"x_min":0,"x_max":0,"o":""}," ":{"ha":180,"x_min":0,"x_max":0,"o":""}," ":{"ha":180,"x_min":0,"x_max":0,"o":""}," ":{"ha":135,"x_min":0,"x_max":0,"o":""}," ":{"ha":216,"x_min":0,"x_max":0,"o":""}," ":{"ha":60,"x_min":0,"x_max":0,"o":""},"‐":{"ha":650,"x_min":28,"x_max":623,"o":"m 69 509 l 581 509 q 610 496 598 509 q 623 467 623 484 l 623 386 q 610 356 623 368 q 581 345 598 345 l 69 345 q 40 356 52 345 q 28 386 28 368 l 28 467 q 40 496 28 484 q 69 509 52 509 z "},"‑":{"ha":650,"x_min":28,"x_max":623,"o":"m 69 509 l 581 509 q 610 496 598 509 q 623 467 623 484 l 623 386 q 610 356 623 368 q 581 345 598 345 l 69 345 q 40 356 52 345 q 28 386 28 368 l 28 467 q 40 496 28 484 q 69 509 52 509 z "},"‒":{"ha":650,"x_min":28,"x_max":623,"o":"m 69 509 l 581 509 q 610 496 598 509 q 623 467 623 484 l 623 386 q 610 356 623 368 q 581 345 598 345 l 69 345 q 40 356 52 345 q 28 386 28 368 l 28 467 q 40 496 28 484 q 69 509 52 509 z "},"–":{"ha":517,"x_min":28,"x_max":490,"o":"m 69 507 l 449 507 q 478 495 467 507 q 490 465 490 483 l 490 363 q 478 333 490 345 q 449 321 467 321 l 69 321 q 40 333 52 321 q 28 363 28 345 l 28 465 q 40 495 28 483 q 69 507 52 507 z "},"—":{"ha":852,"x_min":28,"x_max":825,"o":"m 69 509 l 783 509 q 813 496 801 509 q 825 467 825 484 l 825 386 q 813 356 825 368 q 783 345 801 345 l 69 345 q 40 356 52 345 q 28 386 28 368 l 28 467 q 40 496 28 484 q 69 509 52 509 z "},"‘":{"ha":373,"x_min":45,"x_max":350,"o":"m 65 690 l 146 895 q 188 950 159 927 q 253 972 216 972 l 279 972 q 336 950 322 972 q 342 880 350 928 l 301 663 q 264 608 295 631 q 199 585 233 585 l 143 585 q 67 613 89 585 q 65 690 45 642 z "},"’":{"ha":373,"x_min":24,"x_max":328,"o":"m 309 867 l 228 663 q 186 607 214 630 q 121 585 157 585 l 94 585 q 38 607 52 585 q 32 676 24 629 l 72 895 q 110 949 78 926 q 175 972 141 972 l 231 972 q 307 944 285 972 q 309 867 328 915 z "},"‚":{"ha":373,"x_min":24,"x_max":328,"o":"m 309 114 l 228 -90 q 186 -145 214 -123 q 121 -168 157 -168 l 94 -168 q 38 -146 52 -168 q 32 -77 24 -124 l 72 142 q 110 196 78 173 q 175 220 141 220 l 231 220 q 307 191 285 220 q 309 114 328 162 z "},"“":{"ha":665,"x_min":45,"x_max":642,"o":"m 357 690 l 437 895 q 479 950 451 927 q 545 972 508 972 l 571 972 q 628 950 614 972 q 633 880 642 928 l 593 663 q 555 608 587 631 q 490 585 524 585 l 435 585 q 359 613 380 585 q 357 690 337 642 m 65 690 l 146 895 q 188 950 159 927 q 253 972 216 972 l 279 972 q 336 950 322 972 q 342 880 350 928 l 301 663 q 264 608 295 631 q 199 585 233 585 l 143 585 q 67 613 89 585 q 65 690 45 642 z "},"”":{"ha":665,"x_min":24,"x_max":620,"o":"m 309 867 l 228 663 q 186 607 214 630 q 121 585 157 585 l 94 585 q 38 607 52 585 q 32 676 24 629 l 72 895 q 110 949 78 926 q 175 972 141 972 l 231 972 q 307 944 285 972 q 309 867 328 915 m 600 867 l 519 663 q 477 607 506 630 q 412 585 449 585 l 386 585 q 329 607 343 585 q 323 676 315 629 l 364 895 q 401 949 370 926 q 467 972 433 972 l 522 972 q 598 944 576 972 q 600 867 620 915 z "},"„":{"ha":665,"x_min":24,"x_max":620,"o":"m 309 114 l 228 -90 q 186 -145 214 -123 q 121 -168 157 -168 l 94 -168 q 38 -146 52 -168 q 32 -77 24 -124 l 72 142 q 110 196 78 173 q 175 220 141 220 l 231 220 q 307 191 285 220 q 309 114 328 162 m 600 114 l 519 -90 q 477 -145 506 -123 q 412 -168 449 -168 l 386 -168 q 329 -146 343 -168 q 323 -77 315 -124 l 364 142 q 401 197 370 174 q 467 220 433 220 l 522 220 q 598 191 576 220 q 600 114 620 162 z "},"•":{"ha":555,"x_min":41,"x_max":514,"o":"m 447 588 q 480 558 447 588 q 514 424 514 528 q 447 259 514 319 q 278 199 379 199 q 109 259 177 199 q 41 424 41 319 q 109 588 41 528 q 278 648 177 648 q 447 588 379 648 z "},"…":{"ha":1030,"x_min":56,"x_max":975,"o":"m 56 85 l 56 127 q 80 196 56 172 q 147 220 104 220 l 231 220 q 298 196 274 220 q 322 127 322 172 l 322 85 q 298 17 322 41 q 231 -7 274 -7 l 147 -7 q 79 17 103 -7 q 56 85 56 41 m 382 85 l 382 127 q 406 196 382 172 q 473 220 430 220 l 557 220 q 624 196 600 220 q 648 127 648 172 l 648 85 q 625 17 648 41 q 557 -7 601 -7 l 473 -7 q 406 17 430 -7 q 382 85 382 41 m 708 85 l 708 127 q 732 195 708 171 q 800 220 757 220 l 884 220 q 951 196 927 220 q 975 127 975 172 l 975 85 q 951 17 975 41 q 884 -7 928 -7 l 800 -7 q 732 17 756 -7 q 708 85 708 41 z "}," ":{"ha":216,"x_min":0,"x_max":0,"o":""},"‹":{"ha":583,"x_min":41,"x_max":528,"o":"m 41 354 l 41 387 q 82 461 41 431 l 468 734 q 509 741 491 751 q 528 707 528 731 l 528 590 q 512 540 528 562 q 468 498 496 519 l 288 371 l 468 243 q 512 201 496 222 q 528 151 528 180 l 528 35 q 509 0 528 10 q 468 7 491 -9 l 82 281 q 41 354 41 311 z "},"›":{"ha":583,"x_min":56,"x_max":542,"o":"m 542 387 l 542 354 q 501 281 542 311 l 115 7 q 74 0 92 -9 q 56 35 56 10 l 56 151 q 71 201 56 180 q 115 243 87 222 l 296 371 l 115 498 q 71 540 87 519 q 56 590 56 562 l 56 707 q 74 741 56 731 q 115 734 92 751 l 501 461 q 542 387 542 431 z "}," ":{"ha":270,"x_min":0,"x_max":0,"o":""},"€":{"ha":1201,"x_min":0,"x_max":1166,"o":"m 0 468 l 764 468 l 764 436 q 752 407 764 418 q 722 395 740 395 l 368 395 q 431 233 373 280 q 618 186 489 186 l 753 186 q 920 279 874 186 q 963 337 940 320 q 1017 354 986 354 l 1097 354 q 1116 351 1106 354 q 1139 340 1126 348 q 1159 317 1151 333 q 1166 279 1166 301 q 1132 158 1166 213 q 1042 68 1098 103 q 917 14 986 33 q 777 -5 848 -5 l 611 -5 q 258 93 382 -5 q 113 395 133 191 l 41 395 q 12 407 24 395 q 0 436 0 418 l 0 468 m 785 505 l 21 505 l 21 538 q 33 567 21 555 q 62 579 45 579 l 113 579 q 260 880 135 781 q 611 978 385 978 l 762 978 q 903 959 834 978 q 1028 904 972 939 q 1119 814 1084 869 q 1153 693 1153 760 q 1145 655 1153 671 q 1124 632 1137 640 q 1102 621 1112 625 q 1083 618 1092 618 l 1003 618 q 949 635 972 618 q 905 693 926 652 q 739 786 860 786 l 618 786 q 432 740 490 786 q 368 579 375 694 l 743 579 q 773 567 761 579 q 785 538 785 555 l 785 505 z "},"™":{"ha":1119,"x_min":0,"x_max":1078,"o":"m 24 972 l 422 972 q 440 966 433 972 q 447 947 447 959 l 447 900 q 440 882 447 888 q 422 875 433 875 l 293 875 l 293 551 q 286 534 293 541 q 268 526 278 526 l 178 526 q 160 534 168 526 q 153 551 153 541 l 153 875 l 24 875 q 7 882 14 875 q 0 900 0 888 l 0 947 q 7 966 0 959 q 24 972 14 972 m 799 526 l 760 526 q 721 555 735 526 l 618 806 l 618 551 q 610 534 618 541 q 593 526 603 526 l 505 526 q 488 534 495 526 q 481 551 481 541 l 481 947 q 488 966 481 959 q 505 972 495 972 l 644 972 q 681 943 669 972 l 779 700 l 878 943 q 914 972 889 972 l 1053 972 q 1070 966 1063 972 q 1078 947 1078 959 l 1078 551 q 1070 534 1078 541 q 1053 526 1063 526 l 965 526 q 947 534 955 526 q 940 551 940 541 l 940 806 l 838 555 q 799 526 823 526 z "},"◼":{"ha":743,"x_min":0,"x_max":743,"o":"m 0 743 l 743 743 l 743 0 l 0 0 l 0 743 z "}}}
